<svg width="131" height="57" viewBox="0 0 131 57" fill="none" xmlns="http://www.w3.org/2000/svg">
<g clip-path="url(#clip0_1479_9087)">
<path d="M1.74 15.04H13.06V43H7.06V20.36H1.74V15.04ZM27.8328 37.96C29.5661 37.96 30.8995 37.3867 31.8328 36.24C32.7928 35.0667 33.3795 33.48 33.5928 31.48C31.8861 32.6267 30.0461 33.2 28.0728 33.2C25.4595 33.2 23.2728 32.3467 21.5128 30.64C19.7795 28.9067 18.9128 26.6267 18.9128 23.8C18.9128 20.9733 19.8461 18.7067 21.7128 17C23.6061 15.2667 25.9795 14.4 28.8328 14.4C30.8061 14.4 32.5128 14.7867 33.9528 15.56C35.4195 16.3067 36.5661 17.36 37.3928 18.72C38.9661 21.36 39.7528 24.6667 39.7528 28.64C39.7528 31.2 39.4328 33.4533 38.7928 35.4C38.1795 37.32 37.3395 38.84 36.2728 39.96C34.0861 42.2 31.4328 43.32 28.3128 43.32C27.0061 43.32 25.7528 43.1333 24.5528 42.76C23.3528 42.36 22.4461 41.9733 21.8328 41.6C21.2195 41.2 20.5128 40.6933 19.7128 40.08L22.8328 35.68C23.0195 35.84 23.2595 36.0533 23.5528 36.32C23.8728 36.56 24.4728 36.8933 25.3528 37.32C26.2328 37.7467 27.0595 37.96 27.8328 37.96ZM28.6728 27.88C29.9261 27.88 30.9661 27.52 31.7928 26.8C32.6195 26.08 33.0328 25.1333 33.0328 23.96C33.0328 22.7867 32.6328 21.7733 31.8328 20.92C31.0328 20.0667 30.0328 19.64 28.8328 19.64C27.6328 19.64 26.6461 20.0267 25.8728 20.8C25.1261 21.5467 24.7528 22.5067 24.7528 23.68C24.7528 24.8533 25.0995 25.8533 25.7928 26.68C26.4861 27.48 27.4461 27.88 28.6728 27.88Z" fill="#23A6F0"/>
<path d="M56.82 23.604V22.436C55.4653 22.2227 54.2173 21.6093 53.076 20.596L54.564 18.788C55.396 19.5133 56.148 19.9773 56.82 20.18V17.796C55.7 17.508 54.8787 17.124 54.356 16.644C53.8333 16.1533 53.572 15.4547 53.572 14.548C53.572 13.6307 53.8707 12.8787 54.468 12.292C55.0653 11.6947 55.8493 11.3373 56.82 11.22V10.436H58.516V11.252C59.5827 11.4013 60.644 11.844 61.7 12.58L60.388 14.468C59.716 13.988 59.092 13.668 58.516 13.508V15.812C59.668 16.1107 60.516 16.5107 61.06 17.012C61.6147 17.5133 61.892 18.2227 61.892 19.14C61.892 20.0573 61.5827 20.8147 60.964 21.412C60.356 22.0093 59.54 22.3667 58.516 22.484V23.604H56.82ZM59.332 19.268C59.332 19.044 59.2733 18.8573 59.156 18.708C59.0387 18.5587 58.8253 18.42 58.516 18.292V20.26C59.06 20.0893 59.332 19.7587 59.332 19.268ZM56.82 13.444C56.3613 13.604 56.132 13.8973 56.132 14.324C56.132 14.7507 56.3613 15.076 56.82 15.3V13.444Z" fill="#23A6F0"/>
<path d="M57.848 35.7H53.816V45.5H55.636V42.672H57.848C60.424 42.672 62.02 41.342 62.02 39.186C62.02 37.016 60.424 35.7 57.848 35.7ZM57.764 41.132H55.636V37.24H57.764C59.36 37.24 60.186 37.954 60.186 39.186C60.186 40.418 59.36 41.132 57.764 41.132ZM70.8701 41.804C70.8701 39.466 69.2741 37.94 67.0901 37.94C64.8641 37.94 63.2261 39.536 63.2261 41.762C63.2261 43.988 64.8501 45.598 67.3561 45.598C68.6441 45.598 69.6941 45.178 70.3661 44.38L69.4281 43.302C68.8961 43.848 68.2381 44.114 67.3981 44.114C66.0961 44.114 65.1861 43.414 64.9761 42.322H70.8421C70.8561 42.154 70.8701 41.944 70.8701 41.804ZM67.0901 39.34C68.2381 39.34 69.0641 40.082 69.2041 41.16H64.9621C65.1301 40.068 65.9561 39.34 67.0901 39.34ZM74.4171 39.116V38.024H72.7511V45.5H74.5011V41.874C74.5011 40.348 75.3411 39.564 76.6711 39.564C76.7971 39.564 76.9231 39.578 77.0771 39.606V37.94C75.8311 37.94 74.9211 38.332 74.4171 39.116ZM93.7912 45.5L93.7772 35.7H92.2792L88.4572 42.196L84.5652 35.7H83.0672V45.5H84.8032V39.088L88.0232 44.38H88.8352L92.0552 39.004L92.0692 45.5H93.7912ZM99.8303 45.598C102.154 45.598 103.82 44.002 103.82 41.762C103.82 39.522 102.154 37.94 99.8303 37.94C97.5343 37.94 95.8543 39.522 95.8543 41.762C95.8543 44.002 97.5343 45.598 99.8303 45.598ZM99.8303 44.1C98.5703 44.1 97.6183 43.19 97.6183 41.762C97.6183 40.334 98.5703 39.424 99.8303 39.424C101.104 39.424 102.056 40.334 102.056 41.762C102.056 43.19 101.104 44.1 99.8303 44.1ZM109.936 37.94C108.844 37.94 107.934 38.304 107.36 38.99V38.024H105.694V45.5H107.444V41.72C107.444 40.222 108.284 39.466 109.53 39.466C110.65 39.466 111.308 40.11 111.308 41.44V45.5H113.058V41.216C113.058 38.962 111.728 37.94 109.936 37.94ZM119.482 43.848C119.216 44.058 118.866 44.156 118.502 44.156C117.83 44.156 117.466 43.764 117.466 43.036V39.48H119.468V38.08H117.466V36.372H115.716V38.08H114.484V39.48H115.716V43.078C115.716 44.73 116.654 45.598 118.292 45.598C118.922 45.598 119.552 45.43 119.972 45.094L119.482 43.848ZM125.853 37.94C124.817 37.94 123.935 38.276 123.361 38.892V35.112H121.611V45.5H123.361V41.72C123.361 40.222 124.201 39.466 125.447 39.466C126.567 39.466 127.225 40.11 127.225 41.44V45.5H128.975V41.216C128.975 38.962 127.645 37.94 125.853 37.94Z" fill="#8EC2F2"/>
</g>
<defs>
<clipPath id="clip0_1479_9087">
<rect width="130" height="57" fill="white" transform="translate(0.5)"/>
</clipPath>
</defs>
</svg>
