<svg width="117" height="57" viewBox="0 0 117 57" fill="none" xmlns="http://www.w3.org/2000/svg">
<g clip-path="url(#clip0_1479_9050)">
<path d="M10.18 22.12C9.3 23.8267 8.86 26.08 8.86 28.88C8.86 31.68 9.3 33.9333 10.18 35.64C11.06 37.3467 12.4333 38.2 14.3 38.2C16.1667 38.2 17.54 37.3467 18.42 35.64C19.3 33.9333 19.74 31.68 19.74 28.88C19.74 26.08 19.3 23.8267 18.42 22.12C17.54 20.4133 16.1667 19.56 14.3 19.56C12.4333 19.56 11.06 20.4133 10.18 22.12ZM14.3 43.32C10.4333 43.32 7.54 42.0133 5.62 39.4C3.7 36.76 2.74 33.2533 2.74 28.88C2.74 24.48 3.7 20.9733 5.62 18.36C7.54 15.72 10.4333 14.4 14.3 14.4C18.1667 14.4 21.06 15.72 22.98 18.36C24.9 20.9733 25.86 24.48 25.86 28.88C25.86 33.2533 24.9 36.76 22.98 39.4C21.06 42.0133 18.1667 43.32 14.3 43.32Z" fill="#23A6F0"/>
<path d="M42.82 23.604V22.436C41.4653 22.2227 40.2173 21.6093 39.076 20.596L40.564 18.788C41.396 19.5133 42.148 19.9773 42.82 20.18V17.796C41.7 17.508 40.8787 17.124 40.356 16.644C39.8333 16.1533 39.572 15.4547 39.572 14.548C39.572 13.6307 39.8707 12.8787 40.468 12.292C41.0653 11.6947 41.8493 11.3373 42.82 11.22V10.436H44.516V11.252C45.5827 11.4013 46.644 11.844 47.7 12.58L46.388 14.468C45.716 13.988 45.092 13.668 44.516 13.508V15.812C45.668 16.1107 46.516 16.5107 47.06 17.012C47.6147 17.5133 47.892 18.2227 47.892 19.14C47.892 20.0573 47.5827 20.8147 46.964 21.412C46.356 22.0093 45.54 22.3667 44.516 22.484V23.604H42.82ZM45.332 19.268C45.332 19.044 45.2733 18.8573 45.156 18.708C45.0387 18.5587 44.8253 18.42 44.516 18.292V20.26C45.06 20.0893 45.332 19.7587 45.332 19.268ZM42.82 13.444C42.3613 13.604 42.132 13.8973 42.132 14.324C42.132 14.7507 42.3613 15.076 42.82 15.3V13.444Z" fill="#23A6F0"/>
<path d="M43.848 35.7H39.816V45.5H41.636V42.672H43.848C46.424 42.672 48.02 41.342 48.02 39.186C48.02 37.016 46.424 35.7 43.848 35.7ZM43.764 41.132H41.636V37.24H43.764C45.36 37.24 46.186 37.954 46.186 39.186C46.186 40.418 45.36 41.132 43.764 41.132ZM56.8701 41.804C56.8701 39.466 55.2741 37.94 53.0901 37.94C50.8641 37.94 49.2261 39.536 49.2261 41.762C49.2261 43.988 50.8501 45.598 53.3561 45.598C54.6441 45.598 55.6941 45.178 56.3661 44.38L55.4281 43.302C54.8961 43.848 54.2381 44.114 53.3981 44.114C52.0961 44.114 51.1861 43.414 50.9761 42.322H56.8421C56.8561 42.154 56.8701 41.944 56.8701 41.804ZM53.0901 39.34C54.2381 39.34 55.0641 40.082 55.2041 41.16H50.9621C51.1301 40.068 51.9561 39.34 53.0901 39.34ZM60.4171 39.116V38.024H58.7511V45.5H60.5011V41.874C60.5011 40.348 61.3411 39.564 62.6711 39.564C62.7971 39.564 62.9231 39.578 63.0771 39.606V37.94C61.8311 37.94 60.9211 38.332 60.4171 39.116ZM79.7912 45.5L79.7772 35.7H78.2792L74.4572 42.196L70.5652 35.7H69.0672V45.5H70.8032V39.088L74.0232 44.38H74.8352L78.0552 39.004L78.0692 45.5H79.7912ZM85.8303 45.598C88.1543 45.598 89.8203 44.002 89.8203 41.762C89.8203 39.522 88.1543 37.94 85.8303 37.94C83.5343 37.94 81.8543 39.522 81.8543 41.762C81.8543 44.002 83.5343 45.598 85.8303 45.598ZM85.8303 44.1C84.5703 44.1 83.6183 43.19 83.6183 41.762C83.6183 40.334 84.5703 39.424 85.8303 39.424C87.1043 39.424 88.0563 40.334 88.0563 41.762C88.0563 43.19 87.1043 44.1 85.8303 44.1ZM95.9357 37.94C94.8437 37.94 93.9337 38.304 93.3597 38.99V38.024H91.6937V45.5H93.4437V41.72C93.4437 40.222 94.2837 39.466 95.5297 39.466C96.6497 39.466 97.3077 40.11 97.3077 41.44V45.5H99.0577V41.216C99.0577 38.962 97.7277 37.94 95.9357 37.94ZM105.482 43.848C105.216 44.058 104.866 44.156 104.502 44.156C103.83 44.156 103.466 43.764 103.466 43.036V39.48H105.468V38.08H103.466V36.372H101.716V38.08H100.484V39.48H101.716V43.078C101.716 44.73 102.654 45.598 104.292 45.598C104.922 45.598 105.552 45.43 105.972 45.094L105.482 43.848ZM111.853 37.94C110.817 37.94 109.935 38.276 109.361 38.892V35.112H107.611V45.5H109.361V41.72C109.361 40.222 110.201 39.466 111.447 39.466C112.567 39.466 113.225 40.11 113.225 41.44V45.5H114.975V41.216C114.975 38.962 113.645 37.94 111.853 37.94Z" fill="#8EC2F2"/>
</g>
<defs>
<clipPath id="clip0_1479_9050">
<rect width="116" height="57" fill="white" transform="translate(0.5)"/>
</clipPath>
</defs>
</svg>
