<svg width="23" height="23" viewBox="0 0 23 23" fill="none" xmlns="http://www.w3.org/2000/svg">
<path d="M17.1158 1.91667H20.125C20.3792 1.91667 20.6229 2.01763 20.8026 2.19736C20.9824 2.37708 21.0833 2.62083 21.0833 2.875V20.125C21.0833 20.3792 20.9824 20.6229 20.8026 20.8026C20.6229 20.9824 20.3792 21.0833 20.125 21.0833H2.875C2.62083 21.0833 2.37708 20.9824 2.19736 20.8026C2.01763 20.6229 1.91667 20.3792 1.91667 20.125V17.1158C1.26828 17.0226 0.627657 16.8816 0 16.6942V20.125C0 20.8875 0.302901 21.6188 0.842068 22.1579C1.38123 22.6971 2.1125 23 2.875 23H20.125C20.8875 23 21.6188 22.6971 22.1579 22.1579C22.6971 21.6188 23 20.8875 23 20.125V2.875C23 2.1125 22.6971 1.38123 22.1579 0.842068C21.6188 0.302901 20.8875 0 20.125 0H16.6942C16.8801 0.621 17.02 1.26117 17.1158 1.91667Z" fill="#23A6F0"/>
</svg>
