<svg width="104" height="30" viewBox="0 0 104 30" fill="none" xmlns="http://www.w3.org/2000/svg">
<path d="M0.88 10.5295V1.56954H21.08V6.28954L9.76 29.5295H2.96L13.76 6.92954H6.72V10.5295H0.88ZM35.0441 17.4495V12.5695H41.0441V17.4495H44.2041V22.8495H41.0441V29.5295H35.0441V22.8495H23.8041V18.0895L33.7641 1.56954H40.5641L31.0841 17.4495H35.0441ZM60.2397 6.28954C58.5064 6.28954 57.1597 6.87621 56.1997 8.04954C55.2664 9.19621 54.693 10.7695 54.4797 12.7695C56.213 11.6495 58.053 11.0895 59.9997 11.0895C62.613 11.0895 64.7864 11.9429 66.5197 13.6495C68.2797 15.3562 69.1597 17.6362 69.1597 20.4895C69.1597 23.3162 68.213 25.5829 66.3197 27.2895C64.453 28.9962 62.093 29.8495 59.2397 29.8495C57.2664 29.8495 55.5464 29.4762 54.0797 28.7295C52.6397 27.9562 51.5197 26.8895 50.7197 25.5295C49.1197 22.8895 48.3197 19.5829 48.3197 15.6095C48.3197 13.0495 48.6264 10.8095 49.2397 8.88954C49.8797 6.94287 50.7464 5.40954 51.8397 4.28954C53.973 2.04954 56.613 0.92954 59.7597 0.92954C61.0664 0.92954 62.3064 1.12954 63.4797 1.52954C64.6797 1.90287 65.5997 2.28954 66.2397 2.68954C66.8797 3.08954 67.5864 3.59621 68.3597 4.20954L65.3997 8.60954C65.2397 8.44954 64.9997 8.23621 64.6797 7.96954C64.3864 7.70287 63.7864 7.35621 62.8797 6.92954C61.973 6.50287 61.093 6.28954 60.2397 6.28954ZM59.3997 16.3695C58.173 16.3695 57.133 16.7429 56.2797 17.4895C55.453 18.2095 55.0397 19.1562 55.0397 20.3295C55.0397 21.5029 55.4397 22.5162 56.2397 23.3695C57.0397 24.1962 58.0397 24.6095 59.2397 24.6095C60.4397 24.6095 61.4397 24.2362 62.2397 23.4895C63.0397 22.7429 63.4397 21.7829 63.4397 20.6095C63.4397 19.4095 63.0797 18.4095 62.3597 17.6095C61.6397 16.7829 60.653 16.3695 59.3997 16.3695ZM91.1419 25.1695V17.9695H84.1419V13.0495H91.1419V5.84954H96.6619V13.0495H103.662V17.9695H96.6619V25.1695H91.1419Z" fill="#252B42"/>
</svg>
