<svg width="91" height="30" viewBox="0 0 91 30" fill="none" xmlns="http://www.w3.org/2000/svg">
<path d="M0.74 1.56954H12.06V29.5295H6.06V6.88954H0.74V1.56954ZM21.7128 3.12954C23.5795 1.66287 25.8995 0.92954 28.6728 0.92954C31.4461 0.92954 33.7528 1.66287 35.5928 3.12954C37.4328 4.59621 38.3528 6.40954 38.3528 8.56954C38.3528 10.7029 37.5261 12.5429 35.8728 14.0895C38.1928 15.8762 39.3528 18.2229 39.3528 21.1295C39.3528 23.5829 38.3661 25.6495 36.3928 27.3295C34.4195 29.0095 31.8461 29.8495 28.6728 29.8495C25.4995 29.8495 22.9261 29.0095 20.9528 27.3295C18.9795 25.6495 17.9928 23.5829 17.9928 21.1295C17.9928 18.2229 19.1528 15.8762 21.4728 14.0895C19.7928 12.5162 18.9528 10.6629 18.9528 8.52954C18.9528 6.39621 19.8728 4.59621 21.7128 3.12954ZM25.6328 23.7295C26.5661 24.3429 27.5795 24.6495 28.6728 24.6495C29.7661 24.6495 30.7795 24.3429 31.7128 23.7295C32.6461 23.0895 33.1128 22.1695 33.1128 20.9695C33.1128 19.7695 32.6595 18.8495 31.7528 18.2095C30.8461 17.5695 29.8195 17.2495 28.6728 17.2495C27.5261 17.2495 26.4995 17.5695 25.5928 18.2095C24.6861 18.8495 24.2328 19.7695 24.2328 20.9695C24.2328 22.1695 24.6995 23.0895 25.6328 23.7295ZM25.9928 11.4895C26.7661 12.1295 27.6595 12.4495 28.6728 12.4495C29.6861 12.4495 30.5661 12.1295 31.3128 11.4895C32.0861 10.8495 32.4728 10.0629 32.4728 9.12954C32.4728 8.16954 32.0995 7.36954 31.3528 6.72954C30.6061 6.08954 29.7128 5.76954 28.6728 5.76954C27.6328 5.76954 26.7395 6.08954 25.9928 6.72954C25.2461 7.36954 24.8728 8.16954 24.8728 9.12954C24.8728 10.0629 25.2461 10.8495 25.9928 11.4895ZM42.9369 1.56954H54.2569V29.5295H48.2569V6.88954H42.9369V1.56954ZM77.6966 25.1695V17.9695H70.6966V13.0495H77.6966V5.84954H83.2166V13.0495H90.2166V17.9695H83.2166V25.1695H77.6966Z" fill="#252B42"/>
</svg>
