<svg width="87" height="34" viewBox="0 0 87 34" fill="none" xmlns="http://www.w3.org/2000/svg">
<path d="M7.68 8.64954C6.8 10.3562 6.36 12.6095 6.36 15.4095C6.36 18.2095 6.8 20.4629 7.68 22.1695C8.56 23.8762 9.93333 24.7295 11.8 24.7295C13.6667 24.7295 15.04 23.8762 15.92 22.1695C16.8 20.4629 17.24 18.2095 17.24 15.4095C17.24 12.6095 16.8 10.3562 15.92 8.64954C15.04 6.94287 13.6667 6.08954 11.8 6.08954C9.93333 6.08954 8.56 6.94287 7.68 8.64954ZM11.8 29.8495C7.93333 29.8495 5.04 28.5429 3.12 25.9295C1.2 23.2895 0.24 19.7829 0.24 15.4095C0.24 11.0095 1.2 7.50287 3.12 4.88954C5.04 2.24954 7.93333 0.92954 11.8 0.92954C15.6667 0.92954 18.56 2.24954 20.48 4.88954C22.4 7.50287 23.36 11.0095 23.36 15.4095C23.36 19.7829 22.4 23.2895 20.48 25.9295C18.56 28.5429 15.6667 29.8495 11.8 29.8495ZM29.4572 29.0495C28.5239 28.3829 28.0572 27.5162 28.0572 26.4495C28.0572 25.3829 28.4172 24.5162 29.1372 23.8495C29.8572 23.1562 30.7239 22.8095 31.7372 22.8095C32.7505 22.8095 33.6172 23.1429 34.3372 23.8095C35.0839 24.4762 35.4572 25.2629 35.4572 26.1695C35.4572 27.0495 35.0705 28.1162 34.2972 29.3695L31.8972 33.4895H27.9372L29.4572 29.0495ZM48.8922 24.4895C50.6255 24.4895 51.9589 23.9162 52.8922 22.7695C53.8522 21.5962 54.4389 20.0095 54.6522 18.0095C52.9455 19.1562 51.1055 19.7295 49.1322 19.7295C46.5189 19.7295 44.3322 18.8762 42.5722 17.1695C40.8389 15.4362 39.9722 13.1562 39.9722 10.3295C39.9722 7.50287 40.9055 5.23621 42.7722 3.52954C44.6655 1.79621 47.0389 0.92954 49.8922 0.92954C51.8655 0.92954 53.5722 1.31621 55.0122 2.08954C56.4789 2.83621 57.6255 3.88954 58.4522 5.24954C60.0255 7.88954 60.8122 11.1962 60.8122 15.1695C60.8122 17.7295 60.4922 19.9829 59.8522 21.9295C59.2389 23.8495 58.3989 25.3695 57.3322 26.4895C55.1455 28.7295 52.4922 29.8495 49.3722 29.8495C48.0655 29.8495 46.8122 29.6629 45.6122 29.2895C44.4122 28.8895 43.5055 28.5029 42.8922 28.1295C42.2789 27.7295 41.5722 27.2229 40.7722 26.6095L43.8922 22.2095C44.0789 22.3695 44.3189 22.5829 44.6122 22.8495C44.9322 23.0895 45.5322 23.4229 46.4122 23.8495C47.2922 24.2762 48.1189 24.4895 48.8922 24.4895ZM49.7322 14.4095C50.9855 14.4095 52.0255 14.0495 52.8522 13.3295C53.6789 12.6095 54.0922 11.6629 54.0922 10.4895C54.0922 9.31621 53.6922 8.30287 52.8922 7.44954C52.0922 6.59621 51.0922 6.16954 49.8922 6.16954C48.6922 6.16954 47.7055 6.55621 46.9322 7.32954C46.1855 8.07621 45.8122 9.03621 45.8122 10.2095C45.8122 11.3829 46.1589 12.3829 46.8522 13.2095C47.5455 14.0095 48.5055 14.4095 49.7322 14.4095ZM69.1284 3.12954C70.9951 1.66287 73.3151 0.92954 76.0884 0.92954C78.8618 0.92954 81.1684 1.66287 83.0084 3.12954C84.8484 4.59621 85.7684 6.40954 85.7684 8.56954C85.7684 10.7029 84.9418 12.5429 83.2884 14.0895C85.6084 15.8762 86.7684 18.2229 86.7684 21.1295C86.7684 23.5829 85.7818 25.6495 83.8084 27.3295C81.8351 29.0095 79.2618 29.8495 76.0884 29.8495C72.9151 29.8495 70.3418 29.0095 68.3684 27.3295C66.3951 25.6495 65.4084 23.5829 65.4084 21.1295C65.4084 18.2229 66.5684 15.8762 68.8884 14.0895C67.2084 12.5162 66.3684 10.6629 66.3684 8.52954C66.3684 6.39621 67.2884 4.59621 69.1284 3.12954ZM73.0484 23.7295C73.9818 24.3429 74.9951 24.6495 76.0884 24.6495C77.1818 24.6495 78.1951 24.3429 79.1284 23.7295C80.0618 23.0895 80.5284 22.1695 80.5284 20.9695C80.5284 19.7695 80.0751 18.8495 79.1684 18.2095C78.2618 17.5695 77.2351 17.2495 76.0884 17.2495C74.9418 17.2495 73.9151 17.5695 73.0084 18.2095C72.1018 18.8495 71.6484 19.7695 71.6484 20.9695C71.6484 22.1695 72.1151 23.0895 73.0484 23.7295ZM73.4084 11.4895C74.1818 12.1295 75.0751 12.4495 76.0884 12.4495C77.1018 12.4495 77.9818 12.1295 78.7284 11.4895C79.5018 10.8495 79.8884 10.0629 79.8884 9.12954C79.8884 8.16954 79.5151 7.36954 78.7684 6.72954C78.0218 6.08954 77.1284 5.76954 76.0884 5.76954C75.0484 5.76954 74.1551 6.08954 73.4084 6.72954C72.6618 7.36954 72.2884 8.16954 72.2884 9.12954C72.2884 10.0629 72.6618 10.8495 73.4084 11.4895Z" fill="#252B42"/>
</svg>
