<svg width="16" height="10" viewBox="0 0 16 10" fill="none" xmlns="http://www.w3.org/2000/svg">
<path fill-rule="evenodd" clip-rule="evenodd" d="M6.52141 1.52869C6.10709 0.922783 5.49453 0.459528 4.77582 0.208548C4.0571 -0.0424308 3.27105 -0.0675755 2.53582 0.136895C1.80058 0.341366 1.15588 0.764405 0.698604 1.34243C0.241332 1.92045 -0.00380217 2.62223 4.45913e-05 3.34229C0.000425973 3.93857 0.17132 4.52382 0.494873 5.03688C0.818427 5.54995 1.28277 5.97201 1.83938 6.25897C2.396 6.54593 3.02446 6.68725 3.65912 6.66819C4.29377 6.64912 4.91133 6.47036 5.44728 6.15058C5.16864 6.92755 4.64966 7.75646 3.7946 8.58736C3.63101 8.74628 3.54135 8.95972 3.54533 9.18072C3.54932 9.40172 3.64664 9.61218 3.81587 9.7658C3.98511 9.91943 4.2124 10.0036 4.44774 9.99988C4.68309 9.99613 4.90721 9.90475 5.0708 9.74583C8.23151 6.66989 7.821 3.32631 6.52141 1.53268V1.52869ZM15.0294 1.52869C14.6151 0.922783 14.0025 0.459528 13.2838 0.208548C12.5651 -0.0424308 11.779 -0.0675755 11.0438 0.136895C10.3086 0.341366 9.66385 0.764405 9.20658 1.34243C8.74931 1.92045 8.50418 2.62223 8.50802 3.34229C8.50841 3.93857 8.6793 4.52382 9.00285 5.03688C9.32641 5.54995 9.79075 5.97201 10.3474 6.25897C10.904 6.54593 11.5324 6.68725 12.1671 6.66819C12.8018 6.64912 13.4193 6.47036 13.9553 6.15058C13.6766 6.92755 13.1576 7.75646 12.3026 8.58736C12.139 8.74628 12.0493 8.95972 12.0533 9.18072C12.0573 9.40172 12.1546 9.61218 12.3239 9.7658C12.4931 9.91943 12.7204 10.0036 12.9557 9.99988C13.1911 9.99613 13.4152 9.90475 13.5788 9.74583C16.7395 6.66989 16.329 3.32631 15.0294 1.53268V1.52869Z" fill="#23A6F0"/>
</svg>
