<svg width="49" height="38" viewBox="0 0 49 38" fill="none" xmlns="http://www.w3.org/2000/svg">
<path fill-rule="evenodd" clip-rule="evenodd" d="M46.4165 37.6666C46.4165 37.6666 49.4998 37.6666 49.4998 34.5555C49.4998 31.4444 46.4165 22.1111 34.0832 22.1111C21.7498 22.1111 18.6665 31.4444 18.6665 34.5555C18.6665 37.6666 21.7498 37.6666 21.7498 37.6666H46.4165ZM21.8177 34.5555H46.3487C46.3631 34.5538 46.3775 34.5518 46.3918 34.5493L46.4165 34.5431C46.4103 33.7218 45.9016 31.3386 44.0732 29.192C42.3712 27.1791 39.3803 25.2222 34.0832 25.2222C28.7891 25.2222 25.7983 27.1822 24.0932 29.192C22.2648 31.3386 21.7529 33.7249 21.7498 34.5431C21.7724 34.5475 21.795 34.5516 21.8177 34.5555ZM34.0832 15.8889C35.7187 15.8889 37.2872 15.2333 38.4437 14.0664C39.6001 12.8995 40.2498 11.3169 40.2498 9.66665C40.2498 8.01641 39.6001 6.43376 38.4437 5.26687C37.2872 4.09998 35.7187 3.44442 34.0832 3.44442C32.4477 3.44442 30.8792 4.09998 29.7227 5.26687C28.5662 6.43376 27.9165 8.01641 27.9165 9.66665C27.9165 11.3169 28.5662 12.8995 29.7227 14.0664C30.8792 15.2333 32.4477 15.8889 34.0832 15.8889ZM43.3332 9.66665C43.3332 10.8923 43.0939 12.106 42.6291 13.2384C42.1642 14.3707 41.4828 15.3996 40.6239 16.2663C39.765 17.133 38.7453 17.8205 37.623 18.2895C36.5007 18.7586 35.2979 19 34.0832 19C32.8684 19 31.6656 18.7586 30.5433 18.2895C29.4211 17.8205 28.4014 17.133 27.5424 16.2663C26.6835 15.3996 26.0021 14.3707 25.5373 13.2384C25.0724 12.106 24.8332 10.8923 24.8332 9.66665C24.8332 7.19129 25.8077 4.81732 27.5424 3.06698C29.2771 1.31664 31.6299 0.333313 34.0832 0.333313C36.5364 0.333313 38.8892 1.31664 40.6239 3.06698C42.3586 4.81732 43.3332 7.19129 43.3332 9.66665ZM21.5525 22.9822C20.3191 22.5903 19.0477 22.3327 17.76 22.2138C17.0364 22.1443 16.31 22.1101 15.5832 22.1111C3.24984 22.1111 0.166504 31.4444 0.166504 34.5555C0.166504 36.6306 1.19325 37.6666 3.24984 37.6666H16.2492C15.7921 36.6954 15.5641 35.6305 15.5832 34.5555C15.5832 31.4133 16.7456 28.2026 18.944 25.5209C19.6933 24.6062 20.5658 23.7506 21.5525 22.9822ZM15.3365 25.2222C10.1935 25.2844 7.27359 27.2133 5.59317 29.192C3.75242 31.3511 3.24984 33.7435 3.24984 34.5555H12.4998C12.4998 31.3044 13.4958 28.0658 15.3365 25.2222ZM4.7915 11.2222C4.7915 8.74685 5.76605 6.37288 7.50077 4.62254C9.23548 2.8722 11.5883 1.88887 14.0415 1.88887C16.4948 1.88887 18.8475 2.8722 20.5822 4.62254C22.317 6.37288 23.2915 8.74685 23.2915 11.2222C23.2915 13.6976 22.317 16.0715 20.5822 17.8219C18.8475 19.5722 16.4948 20.5555 14.0415 20.5555C11.5883 20.5555 9.23548 19.5722 7.50077 17.8219C5.76605 16.0715 4.7915 13.6976 4.7915 11.2222ZM14.0415 4.99998C12.406 4.99998 10.8375 5.65553 9.68101 6.82243C8.52454 7.98932 7.87484 9.57197 7.87484 11.2222C7.87484 12.8724 8.52454 14.4551 9.68101 15.622C10.8375 16.7889 12.406 17.4444 14.0415 17.4444C15.677 17.4444 17.2455 16.7889 18.402 15.622C19.5585 14.4551 20.2082 12.8724 20.2082 11.2222C20.2082 9.57197 19.5585 7.98932 18.402 6.82243C17.2455 5.65553 15.677 4.99998 14.0415 4.99998Z" fill="#23A6F0"/>
</svg>
